<mxfile host="app.diagrams.net" modified="2021-04-07T11:02:22.141Z" agent="5.0 (Macintosh; Intel Mac OS X 10_15_7) AppleWebKit/537.36 (KHTML, like Gecko) Chrome/89.0.4389.114 Safari/537.36" etag="YOCS3ukQWBNlUNx0zyb5" version="14.5.7" type="github">
  <diagram name="Page-1" id="52a04d89-c75d-2922-d76d-85b35f80e030">
    <mxGraphModel dx="1920" dy="975" grid="1" gridSize="10" guides="1" tooltips="1" connect="1" arrows="1" fold="1" page="1" pageScale="1" pageWidth="1100" pageHeight="850" background="#F4F1DE" math="0" shadow="0">
      <root>
        <mxCell id="0" />
        <mxCell id="1" parent="0" />
        <mxCell id="1fdf3b25b50cf41e-27" style="edgeStyle=none;html=1;labelBackgroundColor=none;startFill=0;startSize=8;endFill=1;endSize=8;fontFamily=Verdana;fontSize=12;strokeColor=#E07A5F;fontColor=#393C56;" parent="1" source="17472293e6e8944d-30" edge="1">
          <mxGeometry relative="1" as="geometry">
            <mxPoint x="310" y="80.73076923076928" as="targetPoint" />
          </mxGeometry>
        </mxCell>
        <mxCell id="17472293e6e8944d-30" value="开始" style="whiteSpace=wrap;html=1;rounded=0;shadow=0;comic=0;labelBackgroundColor=none;strokeWidth=1;fontFamily=Verdana;fontSize=12;align=center;fillColor=#F2CC8F;strokeColor=#E07A5F;fontColor=#393C56;" parent="1" vertex="1">
          <mxGeometry x="20" y="57" width="120" height="50" as="geometry" />
        </mxCell>
        <mxCell id="1fdf3b25b50cf41e-28" style="edgeStyle=none;html=1;labelBackgroundColor=none;startFill=0;startSize=8;endFill=1;endSize=8;fontFamily=Verdana;fontSize=12;strokeColor=#E07A5F;fontColor=#393C56;" parent="1" source="J0jjMmdj-6mRIFdOnVe4-5" edge="1">
          <mxGeometry relative="1" as="geometry">
            <mxPoint x="430" y="80.95833333333326" as="sourcePoint" />
            <mxPoint x="540" y="80.5" as="targetPoint" />
          </mxGeometry>
        </mxCell>
        <mxCell id="J0jjMmdj-6mRIFdOnVe4-13" style="edgeStyle=orthogonalEdgeStyle;rounded=0;orthogonalLoop=1;jettySize=auto;html=1;exitX=1;exitY=0.5;exitDx=0;exitDy=0;entryX=0;entryY=0.5;entryDx=0;entryDy=0;labelBackgroundColor=#F4F1DE;strokeColor=#E07A5F;fontColor=#393C56;" edge="1" parent="1" source="J0jjMmdj-6mRIFdOnVe4-3" target="J0jjMmdj-6mRIFdOnVe4-5">
          <mxGeometry relative="1" as="geometry" />
        </mxCell>
        <mxCell id="J0jjMmdj-6mRIFdOnVe4-3" value="&lt;span style=&quot;font-family: &amp;#34;helvetica&amp;#34;&quot;&gt;解析数据导出SQL&lt;/span&gt;" style="rounded=1;whiteSpace=wrap;html=1;fillColor=#F2CC8F;strokeColor=#E07A5F;fontColor=#393C56;" vertex="1" parent="1">
          <mxGeometry x="240" y="52" width="120" height="60" as="geometry" />
        </mxCell>
        <mxCell id="J0jjMmdj-6mRIFdOnVe4-7" style="edgeStyle=orthogonalEdgeStyle;rounded=0;orthogonalLoop=1;jettySize=auto;html=1;exitX=1;exitY=0.5;exitDx=0;exitDy=0;labelBackgroundColor=#F4F1DE;strokeColor=#E07A5F;fontColor=#393C56;" edge="1" parent="1" source="J0jjMmdj-6mRIFdOnVe4-5" target="J0jjMmdj-6mRIFdOnVe4-6">
          <mxGeometry relative="1" as="geometry" />
        </mxCell>
        <mxCell id="J0jjMmdj-6mRIFdOnVe4-18" style="edgeStyle=orthogonalEdgeStyle;rounded=0;orthogonalLoop=1;jettySize=auto;html=1;exitX=0.5;exitY=1;exitDx=0;exitDy=0;labelBackgroundColor=#F4F1DE;strokeColor=#E07A5F;fontColor=#393C56;" edge="1" parent="1" source="J0jjMmdj-6mRIFdOnVe4-6" target="J0jjMmdj-6mRIFdOnVe4-17">
          <mxGeometry relative="1" as="geometry" />
        </mxCell>
        <mxCell id="J0jjMmdj-6mRIFdOnVe4-22" value="是" style="edgeLabel;html=1;align=center;verticalAlign=middle;resizable=0;points=[];labelBackgroundColor=#F4F1DE;fontColor=#393C56;" vertex="1" connectable="0" parent="J0jjMmdj-6mRIFdOnVe4-18">
          <mxGeometry x="0.0167" y="2" relative="1" as="geometry">
            <mxPoint as="offset" />
          </mxGeometry>
        </mxCell>
        <mxCell id="J0jjMmdj-6mRIFdOnVe4-6" value="&lt;font face=&quot;helvetica&quot;&gt;是否有加密字段未被选择&lt;/font&gt;" style="rounded=1;whiteSpace=wrap;html=1;fillColor=#F2CC8F;strokeColor=#E07A5F;fontColor=#393C56;" vertex="1" parent="1">
          <mxGeometry x="630" y="52" width="120" height="58" as="geometry" />
        </mxCell>
        <mxCell id="J0jjMmdj-6mRIFdOnVe4-8" value="&lt;font face=&quot;helvetica&quot;&gt;提交申请&lt;/font&gt;" style="rounded=1;whiteSpace=wrap;html=1;fillColor=#F2CC8F;strokeColor=#E07A5F;fontColor=#393C56;" vertex="1" parent="1">
          <mxGeometry x="430" y="230" width="120" height="60" as="geometry" />
        </mxCell>
        <mxCell id="J0jjMmdj-6mRIFdOnVe4-5" value="&lt;span style=&quot;font-family: &amp;#34;helvetica&amp;#34;&quot;&gt;选择加密方式/字段&lt;/span&gt;" style="rounded=1;whiteSpace=wrap;html=1;fillColor=#F2CC8F;strokeColor=#E07A5F;fontColor=#393C56;" vertex="1" parent="1">
          <mxGeometry x="430" y="52" width="120" height="60" as="geometry" />
        </mxCell>
        <mxCell id="J0jjMmdj-6mRIFdOnVe4-9" style="edgeStyle=none;html=1;labelBackgroundColor=none;startFill=0;startSize=8;endFill=1;endSize=8;fontFamily=Verdana;fontSize=12;strokeColor=#E07A5F;fontColor=#393C56;" edge="1" parent="1" target="J0jjMmdj-6mRIFdOnVe4-5">
          <mxGeometry relative="1" as="geometry">
            <mxPoint x="430" y="80.95833333333326" as="sourcePoint" />
            <mxPoint x="540" y="80.5" as="targetPoint" />
          </mxGeometry>
        </mxCell>
        <mxCell id="J0jjMmdj-6mRIFdOnVe4-19" style="edgeStyle=orthogonalEdgeStyle;rounded=0;orthogonalLoop=1;jettySize=auto;html=1;entryX=1;entryY=0.5;entryDx=0;entryDy=0;labelBackgroundColor=#F4F1DE;strokeColor=#E07A5F;fontColor=#393C56;" edge="1" parent="1" source="J0jjMmdj-6mRIFdOnVe4-17" target="J0jjMmdj-6mRIFdOnVe4-8">
          <mxGeometry relative="1" as="geometry" />
        </mxCell>
        <mxCell id="J0jjMmdj-6mRIFdOnVe4-17" value="&lt;font face=&quot;helvetica&quot;&gt;提示&#39;XX未加密字段&#39;&lt;/font&gt;" style="rounded=1;whiteSpace=wrap;html=1;fillColor=#F2CC8F;strokeColor=#E07A5F;fontColor=#393C56;" vertex="1" parent="1">
          <mxGeometry x="630" y="230" width="120" height="60" as="geometry" />
        </mxCell>
        <mxCell id="J0jjMmdj-6mRIFdOnVe4-21" value="" style="endArrow=classic;html=1;entryX=0.5;entryY=0;entryDx=0;entryDy=0;exitX=0.5;exitY=1;exitDx=0;exitDy=0;labelBackgroundColor=#F4F1DE;strokeColor=#E07A5F;fontColor=#393C56;" edge="1" parent="1" source="J0jjMmdj-6mRIFdOnVe4-6" target="J0jjMmdj-6mRIFdOnVe4-8">
          <mxGeometry width="50" height="50" relative="1" as="geometry">
            <mxPoint x="570" y="170" as="sourcePoint" />
            <mxPoint x="620" y="120" as="targetPoint" />
          </mxGeometry>
        </mxCell>
        <mxCell id="J0jjMmdj-6mRIFdOnVe4-23" value="否" style="edgeLabel;html=1;align=center;verticalAlign=middle;resizable=0;points=[];labelBackgroundColor=#F4F1DE;fontColor=#393C56;" vertex="1" connectable="0" parent="J0jjMmdj-6mRIFdOnVe4-21">
          <mxGeometry x="-0.0015" y="4" relative="1" as="geometry">
            <mxPoint x="-1" as="offset" />
          </mxGeometry>
        </mxCell>
        <mxCell id="J0jjMmdj-6mRIFdOnVe4-24" value="&lt;font face=&quot;helvetica&quot;&gt;提交申请&lt;/font&gt;" style="rounded=1;whiteSpace=wrap;html=1;fillColor=#F2CC8F;strokeColor=#E07A5F;fontColor=#393C56;" vertex="1" parent="1">
          <mxGeometry x="20" y="330" width="130" height="50" as="geometry" />
        </mxCell>
        <mxCell id="J0jjMmdj-6mRIFdOnVe4-26" value="&lt;span style=&quot;font-family: &amp;#34;helvetica&amp;#34;&quot;&gt;申请审批&lt;/span&gt;" style="rounded=1;whiteSpace=wrap;html=1;fillColor=#F2CC8F;strokeColor=#E07A5F;fontColor=#393C56;" vertex="1" parent="1">
          <mxGeometry x="240" y="320" width="100" height="60" as="geometry" />
        </mxCell>
        <mxCell id="J0jjMmdj-6mRIFdOnVe4-27" value="&lt;span style=&quot;font-family: &amp;#34;helvetica&amp;#34;&quot;&gt;执行申请&lt;/span&gt;" style="rounded=1;whiteSpace=wrap;html=1;fillColor=#F2CC8F;strokeColor=#E07A5F;fontColor=#393C56;" vertex="1" parent="1">
          <mxGeometry x="420" y="320" width="120" height="60" as="geometry" />
        </mxCell>
        <mxCell id="J0jjMmdj-6mRIFdOnVe4-58" style="edgeStyle=orthogonalEdgeStyle;rounded=0;orthogonalLoop=1;jettySize=auto;html=1;startArrow=classic;startFill=1;labelBackgroundColor=#F4F1DE;strokeColor=#E07A5F;fontColor=#393C56;" edge="1" parent="1" source="J0jjMmdj-6mRIFdOnVe4-28" target="J0jjMmdj-6mRIFdOnVe4-29">
          <mxGeometry relative="1" as="geometry" />
        </mxCell>
        <mxCell id="J0jjMmdj-6mRIFdOnVe4-28" value="&lt;span style=&quot;font-family: &amp;#34;helvetica&amp;#34;&quot;&gt;是否有需要加密字段&lt;/span&gt;" style="rounded=1;whiteSpace=wrap;html=1;fillColor=#F2CC8F;strokeColor=#E07A5F;fontColor=#393C56;" vertex="1" parent="1">
          <mxGeometry x="611" y="320" width="120" height="60" as="geometry" />
        </mxCell>
        <mxCell id="J0jjMmdj-6mRIFdOnVe4-55" style="edgeStyle=orthogonalEdgeStyle;rounded=0;orthogonalLoop=1;jettySize=auto;html=1;exitX=0;exitY=0.5;exitDx=0;exitDy=0;entryX=1;entryY=0.5;entryDx=0;entryDy=0;startArrow=classic;startFill=1;labelBackgroundColor=#F4F1DE;strokeColor=#E07A5F;fontColor=#393C56;" edge="1" parent="1" source="J0jjMmdj-6mRIFdOnVe4-29" target="J0jjMmdj-6mRIFdOnVe4-30">
          <mxGeometry relative="1" as="geometry" />
        </mxCell>
        <mxCell id="J0jjMmdj-6mRIFdOnVe4-29" value="&lt;font face=&quot;helvetica&quot;&gt;对字段进行加密处理&lt;/font&gt;" style="rounded=1;whiteSpace=wrap;html=1;fillColor=#F2CC8F;strokeColor=#E07A5F;fontColor=#393C56;" vertex="1" parent="1">
          <mxGeometry x="611" y="450" width="120" height="60" as="geometry" />
        </mxCell>
        <mxCell id="J0jjMmdj-6mRIFdOnVe4-56" style="edgeStyle=orthogonalEdgeStyle;rounded=0;orthogonalLoop=1;jettySize=auto;html=1;startArrow=classic;startFill=1;labelBackgroundColor=#F4F1DE;strokeColor=#E07A5F;fontColor=#393C56;" edge="1" parent="1" source="J0jjMmdj-6mRIFdOnVe4-30" target="J0jjMmdj-6mRIFdOnVe4-31">
          <mxGeometry relative="1" as="geometry" />
        </mxCell>
        <mxCell id="J0jjMmdj-6mRIFdOnVe4-30" value="&lt;font face=&quot;helvetica&quot;&gt;生成csv&lt;/font&gt;" style="rounded=1;whiteSpace=wrap;html=1;fillColor=#F2CC8F;strokeColor=#E07A5F;fontColor=#393C56;" vertex="1" parent="1">
          <mxGeometry x="420" y="450" width="120" height="60" as="geometry" />
        </mxCell>
        <mxCell id="J0jjMmdj-6mRIFdOnVe4-31" value="&lt;font face=&quot;helvetica&quot;&gt;上传OSS&lt;/font&gt;" style="rounded=1;whiteSpace=wrap;html=1;fillColor=#F2CC8F;strokeColor=#E07A5F;fontColor=#393C56;" vertex="1" parent="1">
          <mxGeometry x="230" y="450" width="120" height="60" as="geometry" />
        </mxCell>
        <mxCell id="J0jjMmdj-6mRIFdOnVe4-50" value="" style="endArrow=open;endFill=1;endSize=12;html=1;labelBackgroundColor=#F4F1DE;strokeColor=#E07A5F;fontColor=#393C56;" edge="1" parent="1">
          <mxGeometry width="160" relative="1" as="geometry">
            <mxPoint x="150" y="350" as="sourcePoint" />
            <mxPoint x="240" y="350" as="targetPoint" />
          </mxGeometry>
        </mxCell>
        <mxCell id="J0jjMmdj-6mRIFdOnVe4-52" value="" style="endArrow=open;endFill=1;endSize=12;html=1;labelBackgroundColor=#F4F1DE;strokeColor=#E07A5F;fontColor=#393C56;" edge="1" parent="1">
          <mxGeometry width="160" relative="1" as="geometry">
            <mxPoint x="340" y="350" as="sourcePoint" />
            <mxPoint x="430" y="349.5" as="targetPoint" />
          </mxGeometry>
        </mxCell>
        <mxCell id="J0jjMmdj-6mRIFdOnVe4-53" value="" style="endArrow=open;endFill=1;endSize=12;html=1;labelBackgroundColor=#F4F1DE;strokeColor=#E07A5F;fontColor=#393C56;" edge="1" parent="1">
          <mxGeometry width="160" relative="1" as="geometry">
            <mxPoint x="530" y="350" as="sourcePoint" />
            <mxPoint x="610" y="350" as="targetPoint" />
            <Array as="points" />
          </mxGeometry>
        </mxCell>
      </root>
    </mxGraphModel>
  </diagram>
</mxfile>
